<svg xmlns="http://www.w3.org/2000/svg" height="48" viewBox="0 -960 960 960" width="48"><path d="M480.019-409.239q36.822 0 62.26-25.049 25.438-25.048 25.438-61.93 0-36.882-25.694-62.288-25.695-25.407-62.042-25.407-36.822 0-61.76 25.672-24.938 25.673-24.938 62.133 0 36.837 24.957 61.853t61.779 25.016ZM313.283-233.283h334.434V-263q0-25.935-14.619-47.826-14.62-21.891-38.62-33.131-27.478-11-55.555-17.38-28.078-6.38-58.923-6.38-30.845 0-58.923 6.38-28.077 6.38-54.316 17.38-25.239 11.24-39.359 33.131-14.119 21.891-14.119 47.826v29.717ZM739.37-62.804H220.63q-30.41 0-53.857-23.28-23.447-23.279-23.447-54.025v-679.782q0-30.845 23.447-54.194 23.447-23.35 53.857-23.35h347.327l248.956 248.957v508.369q0 30.746-23.517 54.025-23.517 23.28-54.026 23.28Zm0-77.305v-473.557L532.467-819.891H220.63v679.782h518.74Zm-518.74 0v-679.782V-140.109Z"/></svg>