<svg xmlns="http://www.w3.org/2000/svg" height="48" viewBox="0 -960 960 960" width="48"><path d="M270.17-101q-86.355 0-147.762-61.557Q61-224.115 61-310q0-76 45.5-132.5T227-514v75q-43 14-68 49.5t-25 79.871q0 56.046 39.75 95.837Q213.5-174 270-174q56.917 0 96.958-39.75Q407-253.5 407-310v-37h240q9.226-9 20.045-14.5Q677.865-367 690-367q23.917 0 40.458 16.542Q747-333.917 747-310q0 23.417-16.542 39.708Q713.917-254 690-254q-12.135 0-23.068-5Q656-264 647-274H477q-16 74-73.54 123.5Q345.92-101 270.17-101ZM690-101q-51 0-97.5-24T517-194h102q15 10 34 15t37 5q56.917 0 96.958-39.75Q827-253.5 827-310q0-56.917-40.042-96.958Q746.917-447 690-447q-21 0-40 6.5T616-424L491-635q-21-4-34-19.3t-13-35.575q0-24.542 16.292-40.833Q476.583-747 500-747q24.417 0 40.708 16.542Q557-713.917 557-690q0 3.706-.5 7t-2.5 10l92 158q11-2 23.167-3.5 12.166-1.5 20.599-1.5 87.397 0 148.815 61.288Q900-397.424 900-310.212 900-224 838.65-162.5 777.3-101 690-101ZM270-254q-23.417 0-39.708-16.292Q214-286.583 214-310.404 214-330 227-345q13-15 33-21l100-169q-32-31-50.5-70.678T291-690q0-87.3 61.581-148.65Q414.163-900 500.081-900 584-900 645-841.65 706-783.3 710-700h-73q-4-54-42.792-90.5Q555.417-827 500.5-827q-56.917 0-96.708 40.115Q364-746.77 364-689.748 364-645 391-609q27 36 69 49L323-328q1.667 6.278 2.833 10 1.167 3.722 1.167 8 0 23.417-16.542 39.708Q293.917-254 270-254Z"/></svg>