<svg xmlns="http://www.w3.org/2000/svg" height="24" viewBox="0 96 960 960" width="24"><path d="M286 932V456l207-210q17-17 36.5-23t35.5 2q16 8 21.5 28.5T586 298l-34 158h262q33.4 0 59.7 26.3Q900 508.6 900 542v46.437q0 5.737-1 12.65T894 614L779.953 886.119Q770 906 749.708 919q-20.293 13-42.075 13H286Zm54-454v400h356q11 0 22.5-6t17.5-20l110-262v-48q0-14-9-23t-23-9H482l51-225-193 193ZM184 932q-36.75 0-61.375-24.625T98 846V542q0-36.75 24.625-61.375T184 456h102v54H184q-14 0-23 9t-9 23v304q0 14 9 23t23 9h102v54H184Zm156-54V478v400Z"/></svg>