<svg xmlns="http://www.w3.org/2000/svg" height="24" viewBox="0 96 960 960" width="24"><path d="M362 932q-37 0-61.5-24.5T276 846V492q0-17.333 6.5-33.667Q289 442 301 430l181-183q16-18 35.5-23t34.5 2q15 7 20 27t-1 46l-35 157h278q33.4 0 59.7 26.3Q900 508.6 900 542v46.437Q900 594 898 601q-2 7-4 13L780 886q-9 21-30 33.5T707.86 932H362Zm-200.248 0Q135 932 116.5 913.325 98 894.65 98 868V520q0-26.65 18.748-45.325Q135.496 456 162.248 456h22Q211 456 229.5 474.675 248 493.35 248 520v349q0 26.65-18.748 44.825Q210.504 932 183.752 932h-22Z"/></svg>