<svg xmlns="http://www.w3.org/2000/svg" height="48" viewBox="0 -960 960 960" width="48"><path d="M480.297-62.804q-87.536 0-163.656-32.38-76.119-32.381-132.978-89.359-56.859-56.979-88.859-133.547-32-76.568-32-164.379 0-87.009 32-163.129 32-76.119 88.859-131.859 56.859-55.739 132.927-87.858 76.068-32.12 163.879-32.12 87.009 0 163.009 32.12 76 32.119 132.859 87.858 56.859 55.74 88.978 131.997 32.12 76.258 32.12 163.46 0 87.643-32.12 164.06-32.119 76.418-88.978 133.397-56.859 56.978-133.085 89.358-76.225 32.38-162.955 32.38Zm-.536-75.826q34.522-34.761 57.022-81.022t37.739-109.739H386.478q13.761 59.478 36.855 107.397 23.094 47.918 56.428 83.364Zm-87.848-12.761q-24.239-36-41.494-79.326-17.256-43.326-29.506-98.674H173.391q36 68.806 85.642 109.022 49.641 40.217 132.88 68.978Zm176.696-1q70.239-21.522 126.88-67.761 56.641-46.239 91.881-109.239H641.229q-13.142 54-30.762 97.5-17.619 43.5-41.858 79.5ZM152.144-392.239h157.247q-3.239-26.239-3.739-47.62-.5-21.38-.5-42.141 0-25 1-44.261 1-19.261 4.239-42.5H152.144q-6.796 23.239-9.416 42Q140.109-508 140.109-482q0 25.761 2.619 46.141 2.62 20.381 9.416 43.62Zm222.605 0h211.534q3.76-30.239 4.641-49.62.88-19.38.88-40.141 0-20-.88-38.261-.881-18.261-4.673-48.5H374.717q-4 30.239-5 48.5t-1 38.261q0 20.761 1 40.141 1 19.381 5.032 49.62Zm275.86 0h158.043q5.522-23.239 8.261-43.62 2.739-20.38 2.739-46.141 0-26-2.739-44.761-2.739-18.761-8.261-42H651.609q1.761 35.478 2.761 53.295 1 17.816 1 33.466 0 21.761-1.5 41.141-1.5 19.381-3.261 48.62Zm-10.38-239.609H787.37q-33.24-66.761-89.881-113-56.641-46.239-129.88-64.761 24.239 36.239 41.858 78.62 17.62 42.38 30.762 99.141Zm-253.751 0h189.044Q565-682.33 539.88-732.589q-25.119-50.259-60.119-89.063-30.522 28.043-52.022 71.924-21.5 43.88-41.261 117.88Zm-213.087 0h148.338q11.184-53.761 27.565-95.641 16.38-41.881 41.619-81.12-73.478 18.522-129 63.142-55.522 44.619-88.522 113.619Z"/></svg>